<svg width="200" height="60" viewBox="0 0 136 28" fill="none" xmlns="http://www.w3.org/2000/svg">
<g clip-path="url(#clip0)">
<path d="M16.2514 16.4606C17.2549 15.9804 18.1833 15.2679 18.9645 14.3251C20.5214 12.446 20.4379 9.04584 20.147 6.79821C19.929 5.11384 19.02 2.0039 18.5141 0.380524H7.48533C6.97935 2.0039 6.07036 5.11384 5.85241 6.79821C5.56148 9.04584 5.478 12.4459 7.0349 14.3251C7.81607 15.2679 8.7445 15.9804 9.74799 16.4606C11.0698 17.0932 11.9179 18.4206 11.9179 19.8861V20.3764C11.9179 22.2176 10.6461 23.833 8.84536 24.217C8.79452 24.2279 8.74283 24.2383 8.69032 24.2483C8.69032 24.2483 7.31918 24.4441 7.05796 25.6195H18.9414C18.6803 24.4442 17.3091 24.2483 17.3091 24.2483C17.2566 24.2383 17.2049 24.2279 17.154 24.217C15.3533 23.833 14.0815 22.2176 14.0815 20.3764V19.8861C14.0815 18.4206 14.9296 17.0932 16.2514 16.4606Z" fill="#F7DF1E"/>
<path d="M14.0815 19.8862V20.3764C14.0815 22.2177 15.3536 23.8328 17.1543 24.2169C17.205 24.2281 17.2568 24.2382 17.3091 24.2483C17.3091 24.2483 18.6801 24.4442 18.9414 25.6193H17.9175C17.7475 24.9049 16.6982 24.8856 16.1304 24.7644C14.3297 24.3803 13.0576 22.2177 13.0576 20.3764V19.8862C13.0576 18.4208 13.9059 16.6353 15.2277 16.0026C16.2309 15.5221 17.1594 14.8097 17.9408 13.8669C19.4975 11.988 19.4143 9.0461 19.1231 6.79832C18.9054 5.11375 17.9961 2.00391 17.4902 0.380737H18.5142C19.0201 2.00391 19.9293 5.11375 20.147 6.79832C20.4378 9.0461 20.5215 12.4462 18.9648 14.3251C18.1834 15.2679 17.2548 15.9803 16.2517 16.4608C14.9299 17.0935 14.0815 18.4208 14.0815 19.8862Z" fill="#F7DF1E"/>
<path d="M18.9648 14.3251C18.1727 15.2811 17.229 16.0006 16.2091 16.4811C16.1999 16.4852 16.1913 16.4892 16.1822 16.4933C16.1487 16.509 16.1144 16.5225 16.0817 16.5389C14.977 17.0961 13.8748 17.0973 12.7136 17.0961C11.8716 17.0952 11.0027 16.9225 10.2004 16.6592C10.1994 16.6592 10.1984 16.6587 10.1974 16.6582C9.02174 16.1858 7.93132 15.4069 7.03477 14.3251C5.81292 12.8507 5.60188 10.4384 5.70791 8.38246C7.60053 8.29466 9.4901 9.03394 11.2888 9.72096C13.3616 10.513 15.6342 11.2573 17.7581 10.616C18.7653 10.3116 19.6518 9.67632 20.3083 8.85635C20.3088 8.85585 20.3093 8.85534 20.3093 8.85483C20.3601 10.7982 20.0942 12.9623 18.9648 14.3251V14.3251Z" fill="#E94444"/>
<path d="M20.2807 10.3258C20.2368 10.9555 20.1476 11.5817 19.989 12.1936C19.9412 12.3779 19.8866 12.5585 19.8247 12.7384C19.6288 13.3084 19.3516 13.8576 18.9647 14.325C18.7759 14.5531 18.575 14.7713 18.3633 14.9781C17.8411 15.4881 17.2634 15.9176 16.624 16.2694C16.5936 16.2862 16.5626 16.3029 16.5316 16.3191C16.3829 16.3972 16.2293 16.4644 16.0816 16.5388C15.392 16.8869 14.7035 17.0178 14.0008 17.0665C14.3367 16.6078 14.7512 16.2303 15.2276 16.0025C16.2308 15.522 17.1593 14.8096 17.9407 13.8668C18.847 12.7729 19.1976 11.3187 19.2747 9.85025C19.6603 9.5671 20.0084 9.23072 20.3083 8.85626C20.3088 8.85575 20.3093 8.85524 20.3093 8.85474C20.3098 8.85677 20.3098 8.8588 20.3093 8.86083C20.3108 8.91613 20.3124 8.97194 20.3129 9.02775C20.3139 9.05365 20.3139 9.08 20.3139 9.1059C20.3139 9.35326 20.3145 9.60026 20.3057 9.84756C20.3 10.0071 20.2918 10.1666 20.2807 10.3258V10.3258Z" fill="#D83131"/>
<path d="M16.4158 16.8038C18.2559 15.9231 19.683 14.5268 20.2796 12.5886C20.8541 10.7223 20.772 8.66211 20.5244 6.74934C20.2784 4.84839 19.2015 1.30726 18.8773 0.267262C18.8278 0.108316 18.6806 0 18.5141 0H7.48535C7.31879 0 7.17157 0.108316 7.12201 0.267313C6.79782 1.30731 5.72095 4.84844 5.47497 6.74939C5.22756 8.6613 5.14636 10.7149 5.72207 12.5824C6.30976 14.4887 7.80552 15.9529 9.58368 16.8039C10.7704 17.3719 11.5373 18.5817 11.5373 19.886C11.5373 20.5255 11.5163 21.1354 11.2692 21.7372C11.1894 21.9316 11.2823 22.154 11.4767 22.2338C11.6711 22.3135 11.8935 22.2207 11.9733 22.0263C12.364 21.0747 12.4253 19.8562 12.1671 18.8583C12.099 18.5954 11.7538 17.4153 11.4377 17.3608C12.4445 17.5345 13.5197 17.5317 14.537 17.3934C14.0061 18.1037 13.701 18.9758 13.701 19.886C13.701 22.0404 14.7855 24.1009 17.0748 24.5892C17.5556 24.6918 18.0388 24.8252 18.3548 25.2389H7.64368C8.02256 24.7404 8.70902 24.6303 8.74406 24.625C8.7499 24.6241 8.75569 24.6232 8.76153 24.6221C9.15112 24.5471 9.5982 24.4053 9.95418 24.2244C10.2796 24.059 10.5834 23.8515 10.8556 23.6083C11.0124 23.4683 11.026 23.2278 10.886 23.071C10.746 22.9143 10.5055 22.9006 10.3486 23.0407C9.86039 23.4768 9.26462 23.7507 8.62584 23.8731C8.47284 23.8972 6.99125 24.1652 6.68646 25.5369C6.66142 25.6496 6.68889 25.7675 6.76105 25.8576C6.83332 25.9476 6.94244 26 7.05792 26H18.9414C19.0569 26 19.1661 25.9476 19.2383 25.8576C19.3105 25.7675 19.3379 25.6496 19.3129 25.5369C19.0842 24.5067 18.1746 24.0456 17.2326 23.8446C14.8748 23.3412 13.7774 20.4851 14.8151 18.3866C15.1549 17.6996 15.724 17.1349 16.4158 16.8038ZM12.7125 16.7507C11.6863 16.7146 10.6765 16.4917 9.84962 16.0863C8.88808 15.6148 8.03973 14.9413 7.32798 14.0823C6.80803 13.4547 6.06337 12.0749 6.05992 9.32389C6.06154 9.32491 6.06327 9.32577 6.06495 9.32684C6.06444 9.13255 6.06728 8.94172 6.07317 8.75641C6.07784 8.6089 8.47482 9.13834 8.67805 9.19857C9.11451 9.32796 9.54524 9.47609 9.97297 9.63183C11.6581 10.2455 13.3259 10.9798 15.1281 11.1854C15.3377 11.2094 15.5256 11.0594 15.5495 10.8506C15.5733 10.6418 15.4235 10.4532 15.2147 10.4293C13.864 10.2747 12.5749 9.80495 11.3126 9.32263C9.63075 8.67989 7.89581 8.01719 6.11141 7.99561C6.13888 7.63217 6.17778 7.24979 6.22993 6.84704C6.45032 5.14358 7.37617 2.0277 7.76602 0.761109H18.2336C18.6235 2.0277 19.5493 5.14358 19.7697 6.84709C19.8576 7.52649 19.9083 8.14831 19.9288 8.71767C19.3125 9.44907 18.5074 9.99197 17.6482 10.2517C17.3933 10.3286 17.1264 10.3866 16.8547 10.4241C16.6465 10.4528 16.5011 10.6448 16.5297 10.853C16.5584 11.0613 16.7504 11.2065 16.9587 11.178C17.2695 11.1352 17.5755 11.0686 17.8683 10.9802C18.612 10.7554 19.3194 10.3506 19.9255 9.81073C19.921 9.93992 19.9145 10.0708 19.906 10.2028C19.9081 10.1996 19.9102 10.1966 19.9123 10.1935C19.7731 12.3733 19.1336 13.5246 18.6715 14.0822C17.9442 14.96 17.0747 15.6447 16.0872 16.1173C15.1128 16.5836 13.9017 16.7925 12.7125 16.7507Z" fill="black"/>
</g>
<path d="M38.624 10.96V11.44H37.448L32.96 22H32.528L27.2 11.44H26.24V10.96H32.48V11.44H31.28L34.256 17.68L36.92 11.44H35.024V10.96H38.624ZM50.4352 17.2H43.1872C43.3472 20.016 44.4432 21.424 46.4752 21.424C47.0192 21.424 47.6352 21.296 48.3232 21.04C49.0272 20.784 49.5392 20.424 49.8592 19.96L50.1952 20.2C49.8432 20.792 49.2432 21.28 48.3952 21.664C47.5472 22.048 46.6992 22.24 45.8512 22.24C45.0192 22.24 44.2672 22.16 43.5952 22C42.9232 21.824 42.2672 21.536 41.6272 21.136C40.9872 20.736 40.4832 20.136 40.1152 19.336C39.7632 18.536 39.5872 17.568 39.5872 16.432C39.5872 14.496 40.1232 13.064 41.1952 12.136C42.2672 11.192 43.5632 10.72 45.0832 10.72C46.6192 10.72 47.8912 11.232 48.8992 12.256C49.9232 13.28 50.4352 14.928 50.4352 17.2ZM43.1632 16.72H47.0752C47.0752 15.248 46.9152 13.96 46.5952 12.856C46.2912 11.752 45.7952 11.2 45.1072 11.2C44.4192 11.2 43.9232 11.736 43.6192 12.808C43.3152 13.864 43.1632 15.08 43.1632 16.456V16.72ZM56.9788 21.52H58.1788V22H52.1788V21.52H53.3788V6.4H52.1788V5.92H56.9788V21.52ZM71.5063 21.52C71.3463 21.68 71.0423 21.824 70.5943 21.952C70.1463 22.064 69.6263 22.12 69.0343 22.12C67.7223 22.12 66.8983 21.728 66.5623 20.944C65.7623 21.776 64.5383 22.192 62.8903 22.192C62.0103 22.192 61.2823 21.992 60.7063 21.592C60.1463 21.176 59.8663 20.568 59.8663 19.768C59.8663 18.696 60.2823 17.872 61.1143 17.296C61.9463 16.704 63.4023 16.288 65.4823 16.048L66.4423 15.928V14.752C66.4423 13.36 66.3383 12.424 66.1303 11.944C65.9223 11.464 65.5063 11.224 64.8823 11.224C64.2743 11.224 63.8823 11.312 63.7063 11.488C63.5303 11.648 63.4663 11.84 63.5143 12.064C63.5623 12.272 63.6423 12.552 63.7543 12.904C63.8663 13.256 63.9223 13.536 63.9223 13.744C63.9223 14.24 63.7463 14.664 63.3943 15.016C63.0583 15.352 62.6423 15.52 62.1463 15.52C61.6663 15.52 61.2503 15.352 60.8983 15.016C60.5463 14.664 60.3703 14.24 60.3703 13.744C60.3703 12.928 60.7863 12.232 61.6183 11.656C62.4663 11.064 63.7223 10.768 65.3863 10.768C67.0663 10.768 68.2583 11.096 68.9623 11.752C69.6823 12.408 70.0423 13.568 70.0423 15.232V19.552C70.0423 20.4 70.1463 20.936 70.3543 21.16C70.5623 21.368 70.9463 21.408 71.5063 21.28V21.52ZM63.2023 19.288C63.2823 19.896 63.5063 20.368 63.8743 20.704C64.2423 21.024 64.6663 21.184 65.1463 21.184C65.6423 21.184 66.0743 20.944 66.4423 20.464V16.384L65.5783 16.504C64.8423 16.6 64.2423 16.88 63.7783 17.344C63.3303 17.808 63.1383 18.456 63.2023 19.288ZM78.3444 21.808C80.0084 21.808 80.8404 21.352 80.8404 20.44C80.8404 19.928 80.5524 19.512 79.9764 19.192C79.4004 18.856 78.7044 18.584 77.8884 18.376C77.0724 18.168 76.2644 17.928 75.4644 17.656C74.6804 17.384 74.0244 16.952 73.4964 16.36C72.9844 15.768 72.7764 14.992 72.8724 14.032C72.9684 13.072 73.4564 12.28 74.3364 11.656C75.2324 11.032 76.3284 10.72 77.6244 10.72C78.9364 10.72 79.9924 10.928 80.7924 11.344C81.5924 11.76 82.0404 12.32 82.1364 13.024C82.2004 13.456 82.1284 13.856 81.9204 14.224C81.7284 14.592 81.4004 14.784 80.9364 14.8C80.4884 14.816 80.1124 14.696 79.8084 14.44C79.5204 14.184 79.3844 13.888 79.4004 13.552C79.4164 13.216 79.5444 12.92 79.7844 12.664C80.0244 12.392 80.1444 12.176 80.1444 12.016C80.1444 11.744 79.8804 11.544 79.3524 11.416C78.8404 11.272 78.2404 11.2 77.5524 11.2C76.8804 11.2 76.3284 11.352 75.8964 11.656C75.4644 11.96 75.2484 12.336 75.2484 12.784C75.2484 13.232 75.5124 13.616 76.0404 13.936C76.5844 14.256 77.2404 14.52 78.0084 14.728C78.7764 14.92 79.5364 15.144 80.2884 15.4C81.0564 15.64 81.7044 16.032 82.2324 16.576C82.7764 17.12 83.0484 17.808 83.0484 18.64C83.0484 19.744 82.6564 20.632 81.8724 21.304C81.0884 21.96 79.9044 22.288 78.3204 22.288C76.7364 22.288 75.4484 22.048 74.4564 21.568C73.4804 21.088 72.9444 20.472 72.8484 19.72C72.7844 19.288 72.8564 18.888 73.0644 18.52C73.2724 18.152 73.6004 17.96 74.0484 17.944C74.4964 17.928 74.8644 18.048 75.1524 18.304C75.4564 18.56 75.6004 18.856 75.5844 19.192C75.5684 19.528 75.4404 19.832 75.2004 20.104C74.9604 20.36 74.8404 20.568 74.8404 20.728C74.8404 21.048 75.2084 21.312 75.9444 21.52C76.6964 21.712 77.4964 21.808 78.3444 21.808ZM91.967 10.96H96.767V11.44H95.567V26.56H96.767V27.04H90.767V26.56H91.967V20.896C91.711 21.44 91.295 21.848 90.719 22.12C90.143 22.392 89.527 22.528 88.871 22.528C87.543 22.528 86.415 22 85.487 20.944C84.559 19.888 84.095 18.424 84.095 16.552C84.095 14.68 84.567 13.232 85.511 12.208C86.455 11.184 87.631 10.672 89.039 10.672C90.447 10.672 91.423 11.136 91.967 12.064V10.96ZM91.967 16.216C91.967 14.44 91.847 13.232 91.607 12.592C91.367 11.952 90.855 11.632 90.071 11.632C89.287 11.632 88.703 11.992 88.319 12.712C87.935 13.416 87.743 14.656 87.743 16.432C87.743 18.192 87.991 19.472 88.487 20.272C88.983 21.072 89.575 21.472 90.263 21.472C90.967 21.472 91.535 21.04 91.967 20.176V16.216ZM106.49 22V20.728C106.186 21.16 105.706 21.528 105.05 21.832C104.41 22.12 103.714 22.264 102.962 22.264C100.114 22.264 98.69 20.72 98.69 17.632V11.44H97.49V10.96H102.29V18.16C102.29 19.296 102.458 20.104 102.794 20.584C103.13 21.064 103.634 21.304 104.306 21.304C105.202 21.304 105.93 20.824 106.49 19.864V11.44H105.29V10.96H110.09V21.52H111.29V22H106.49ZM123.584 17.2H116.336C116.496 20.016 117.592 21.424 119.624 21.424C120.168 21.424 120.784 21.296 121.472 21.04C122.176 20.784 122.688 20.424 123.008 19.96L123.344 20.2C122.992 20.792 122.392 21.28 121.544 21.664C120.696 22.048 119.848 22.24 119 22.24C118.168 22.24 117.416 22.16 116.744 22C116.072 21.824 115.416 21.536 114.776 21.136C114.136 20.736 113.632 20.136 113.264 19.336C112.912 18.536 112.736 17.568 112.736 16.432C112.736 14.496 113.272 13.064 114.344 12.136C115.416 11.192 116.712 10.72 118.232 10.72C119.768 10.72 121.04 11.232 122.048 12.256C123.072 13.28 123.584 14.928 123.584 17.2ZM116.312 16.72H120.224C120.224 15.248 120.064 13.96 119.744 12.856C119.44 11.752 118.944 11.2 118.256 11.2C117.568 11.2 117.072 11.736 116.768 12.808C116.464 13.864 116.312 15.08 116.312 16.456V16.72ZM124.607 22V21.64L131.399 11.44H129.983C127.151 11.44 125.735 12.76 125.735 15.4H125.351V10.96H135.455V11.248L128.735 21.52H130.199C131.063 21.52 131.759 21.472 132.287 21.376C132.815 21.28 133.295 21.088 133.727 20.8C134.559 20.24 134.975 19.048 134.975 17.224H135.311V22H124.607Z" fill="#F7DF1E"/>
<defs>
<clipPath id="clip0">
<rect width="26" height="26" fill="white"/>
</clipPath>
</defs>
</svg>
