<?xml version="1.0" standalone="no"?>
<!DOCTYPE svg PUBLIC "-//W3C//DTD SVG 20010904//EN"
 "http://www.w3.org/TR/2001/REC-SVG-20010904/DTD/svg10.dtd">
<svg version="1.0" xmlns="http://www.w3.org/2000/svg"
 width="130" height="100" viewBox="0 0 512.000000 512.000000"
 preserveAspectRatio="xMidYMid meet">

<g transform="translate(0.000000,512.000000) scale(0.100000,-0.100000)"
fill="#000000" stroke="none">
<path d="M1315 4896 c-17 -12 -18 -20 -8 -92 5 -44 9 -80 8 -82 -2 -2 -25 8
-52 21 -113 57 -279 66 -444 24 -113 -30 -180 -61 -245 -118 -179 -155 -260
-382 -209 -584 57 -223 267 -443 572 -598 134 -68 216 -96 430 -147 92 -23
191 -51 219 -64 67 -31 119 -86 144 -154 46 -123 36 -188 -34 -225 -35 -18
-56 -21 -151 -20 -130 1 -265 26 -442 84 -98 32 -127 38 -143 29 -21 -11 -26
-36 -12 -57 10 -16 153 -65 282 -98 222 -56 404 -60 502 -12 31 15 64 39 73
54 l17 26 65 -124 c152 -292 316 -487 498 -594 36 -21 65 -43 65 -50 0 -23
-39 -126 -71 -185 -42 -79 -119 -163 -243 -264 -175 -142 -94 -126 -625 -126
-448 0 -462 -1 -481 -20 -20 -20 -20 -33 -20 -648 0 -597 1 -630 18 -645 17
-16 138 -17 1534 -17 1455 0 1516 1 1531 18 15 17 17 76 17 645 0 614 0 627
-20 647 -19 19 -33 20 -482 20 l-462 0 -95 72 c-135 102 -269 239 -309 315
-33 62 -72 165 -72 188 0 7 29 29 65 50 182 107 346 302 498 594 l65 124 17
-26 c9 -15 42 -39 73 -54 54 -27 64 -28 197 -27 115 0 160 5 256 27 140 33
320 92 331 109 14 22 9 47 -12 58 -16 9 -45 3 -143 -29 -177 -58 -312 -83
-442 -84 -95 -1 -116 2 -151 20 -70 37 -80 102 -34 225 25 68 77 123 144 154
28 13 127 41 219 64 214 51 296 79 430 147 305 155 515 375 572 598 52 203
-33 436 -212 586 -68 57 -131 87 -242 115 -169 44 -335 33 -454 -28 -21 -10
-40 -18 -41 -16 -2 2 2 38 7 82 10 72 9 80 -8 92 -28 21 -2462 21 -2490 0z
m-120 -216 c34 -14 77 -40 102 -64 l43 -41 46 -235 c65 -335 191 -825 253
-982 12 -32 7 -34 -43 -13 -20 8 -118 35 -218 59 -101 24 -212 55 -248 69
-309 116 -592 354 -666 558 -63 175 -18 364 121 508 76 79 132 112 235 140
109 29 116 30 220 26 69 -2 111 -9 155 -25z m3105 0 c105 -30 159 -62 235
-141 142 -147 185 -338 116 -518 -76 -200 -359 -434 -661 -548 -36 -14 -147
-45 -248 -69 -100 -24 -198 -51 -218 -59 -20 -8 -40 -15 -44 -15 -4 0 12 62
37 138 66 203 156 563 213 852 49 242 53 257 83 288 38 40 94 71 162 89 69 18
230 9 325 -17z m-580 -3805 l0 -275 -1165 0 -1165 0 0 275 0 275 1165 0 1165
0 0 -275z"/>
</g>
</svg>
